<svg viewBox="0 0 799 509" fill="none" xmlns="http://www.w3.org/2000/svg">
<path d="M67 278C67 278 174.999 323 99.4996 340C23.9999 357 88.0001 414.5 222 414.5C355.999 414.5 286.5 506 397 508.5C507.5 511 512.5 400.5 527.5 387.5C542.5 374.5 605.5 410.5 668.5 387.5C731.5 364.5 695.5 350 657.5 322.5C619.5 295 726.5 278 726.5 278H67Z" fill="#343333"/>
<line x1="592" y1="342.5" x2="613" y2="342.5" stroke="#292929" stroke-width="3"/>
<line x1="437" y1="364.5" x2="509" y2="364.5" stroke="#292929" stroke-width="3"/>
<line x1="393" y1="383.5" x2="453" y2="383.5" stroke="#292929" stroke-width="3"/>
<line x1="757" y1="277.5" x2="799" y2="277.5" stroke="#292929" stroke-width="3"/>
<line x1="56" y1="277.5" x2="730" y2="277.5" stroke="#292929" stroke-width="3"/>
<line x1="149" y1="371.5" x2="191" y2="371.5" stroke="#292929" stroke-width="3"/>
<line x1="285" y1="296.5" x2="346" y2="296.5" stroke="#292929" stroke-width="3"/>
<line x1="1.31134e-07" y1="277.5" x2="34" y2="277.5" stroke="#292929" stroke-width="3"/>
<mask id="mask0_3029_1933" style="mask-type:alpha" maskUnits="userSpaceOnUse" x="0" y="58" width="799" height="218">
<path d="M0 58H799V276H0V58Z" fill="#D9D9D9"/>
</mask>
<g mask="url(#mask0_3029_1933)">
<path d="M162.887 71.9767L214.312 67.7281L227.057 222.003L264.53 218.907L267.592 255.98L230.12 259.076L235.06 318.873L190.412 322.561L185.472 262.765L67.8729 272.481L65.4028 242.582L162.887 71.9767ZM155.982 158.439L114.242 231.323L182.409 225.691L177.008 160.314L175.346 115.9L174.548 115.966L155.982 158.439Z" fill="#FFA626"/>
<path d="M654.358 65.4348L705.912 67.6308L699.324 222.291L736.889 223.891L735.306 261.057L697.74 259.457L695.187 319.403L650.427 317.496L652.981 257.55L535.088 252.528L536.365 222.555L654.358 65.4348ZM636.728 150.361L586.226 217.473L654.564 220.384L657.356 154.843L661.244 110.569L660.444 110.535L636.728 150.361Z" fill="#FFA626"/>
</g>
<mask id="mask1_3029_1933" style="mask-type:alpha" maskUnits="userSpaceOnUse" x="289" y="0" width="235" height="276">
<rect x="289" width="235" height="276" fill="#D9D9D9"/>
</mask>
<g mask="url(#mask1_3029_1933)">
<path d="M392.314 58.2619C406.941 57.1801 420.557 58.7132 433.164 62.8612C446.018 66.7236 457.349 73.5063 467.158 83.2092C476.967 92.9121 485.008 105.821 491.28 121.935C497.799 137.764 501.904 157.114 503.596 179.985C505.287 202.856 503.95 222.742 499.585 239.643C495.2 256.279 488.747 270.26 480.226 281.586C471.685 292.646 461.485 301.155 449.626 307.112C437.766 313.07 425.055 316.55 411.492 317.554C396.865 318.635 383.125 317.245 370.272 313.383C357.665 309.235 346.457 302.309 336.648 292.606C326.819 282.638 318.636 269.606 312.097 253.511C305.825 237.396 301.843 217.903 300.151 195.033C298.538 173.226 299.924 154.004 304.309 137.369C308.694 120.733 315.147 106.753 323.668 95.4266C332.17 83.8346 342.35 75.0598 354.21 69.1021C366.05 62.8785 378.751 59.2651 392.314 58.2619ZM348.818 191.433C350.215 210.315 352.828 225.764 356.658 237.781C360.489 249.798 365.063 259.219 370.381 266.046C375.945 272.587 382.027 277.083 388.626 279.537C395.471 281.704 402.351 282.533 409.265 282.021C416.179 281.51 422.72 279.555 428.886 276.158C435.052 272.76 440.263 267.295 444.519 259.76C448.755 251.96 451.893 241.968 453.934 229.784C455.954 217.334 456.286 201.935 454.929 183.585C453.552 164.969 450.948 149.653 447.118 137.636C443.288 125.619 438.591 116.34 433.026 109.799C427.728 103.239 421.789 98.865 415.21 96.6777C408.611 94.2244 401.854 93.2535 394.94 93.7649C388.025 94.2764 381.485 96.2308 375.319 99.6282C369.153 103.026 363.809 108.501 359.287 116.055C355.011 123.324 351.863 133.183 349.843 145.633C347.803 157.816 347.461 173.083 348.818 191.433Z" fill="#FE8127"/>
</g>
<line x1="274" y1="356.5" x2="174" y2="356.5" stroke="#292929" stroke-width="3"/>
<line x1="357" y1="445.5" x2="443" y2="445.5" stroke="#292929" stroke-width="3"/>
<path d="M523.5 329.5H597.5" stroke="#292929" stroke-width="3"/>
</svg>
