<svg width="32" height="32" viewBox="0 0 32 32" xmlns="http://www.w3.org/2000/svg">
  <path fill-rule="evenodd" clip-rule="evenodd" 
    d="M19.9997 5.33301C21.0835 5.33301 21.6254 5.33301 21.918 5.62385C22.1115 5.8163 22.2181 6.07969 22.2127 6.35259C22.2046 6.76502 21.6647 7.28724 20.5848 8.33168C18.5797 10.271 17.333 12.9898 17.333 15.9997C17.333 19.0096 18.5797 21.7283 20.5848 23.6677C21.6647 24.7121 22.2046 25.2343 22.2127 25.6468C22.2181 25.9197 22.1115 26.1831 21.918 26.3755C21.6254 26.6663 21.0835 26.6663 19.9997 26.6663V26.6663C14.1086 26.6663 9.33301 21.8907 9.33301 15.9997C9.33301 10.1086 14.1086 5.33301 19.9997 5.33301V5.33301Z"/>
</svg>
