<svg width="118" height="40" viewBox="0 0 118 40" fill="none" xmlns="http://www.w3.org/2000/svg">
<path d="M2.656 32V9.6H6.944L16.48 25.408H14.208L23.584 9.6H27.84L27.904 32H23.04L23.008 17.056H23.904L16.416 29.632H14.08L6.432 17.056H7.52V32H2.656ZM40.1305 32.256C38.7012 32.256 37.4212 31.9787 36.2905 31.424C35.1812 30.8693 34.3172 30.0267 33.6985 28.896C33.0798 27.744 32.7705 26.2827 32.7705 24.512V14.784H37.7625V23.776C37.7625 25.2053 38.0612 26.2613 38.6585 26.944C39.2772 27.6053 40.1412 27.936 41.2505 27.936C42.0185 27.936 42.7012 27.776 43.2985 27.456C43.8958 27.1147 44.3652 26.6027 44.7065 25.92C45.0478 25.216 45.2185 24.3413 45.2185 23.296V14.784H50.2105V32H45.4745V27.264L46.3385 28.64C45.7625 29.8347 44.9092 30.7413 43.7785 31.36C42.6692 31.9573 41.4532 32.256 40.1305 32.256ZM62.9313 38.464C61.3099 38.464 59.7419 38.2613 58.2273 37.856C56.7339 37.472 55.4859 36.8853 54.4833 36.096L56.4673 32.512C57.1926 33.1093 58.1099 33.5787 59.2193 33.92C60.3499 34.2827 61.4593 34.464 62.5473 34.464C64.3179 34.464 65.5979 34.0693 66.3873 33.28C67.1979 32.4907 67.6033 31.3173 67.6033 29.76V27.168L67.9233 22.848L67.8593 18.496V14.784H72.5953V29.12C72.5953 32.32 71.7633 34.6773 70.0993 36.192C68.4353 37.7067 66.0459 38.464 62.9313 38.464ZM62.1633 31.168C60.5633 31.168 59.1126 30.8267 57.8113 30.144C56.5313 29.44 55.4966 28.4693 54.7073 27.232C53.9393 25.9733 53.5553 24.512 53.5553 22.848C53.5553 21.1627 53.9393 19.7013 54.7073 18.464C55.4966 17.2053 56.5313 16.2347 57.8113 15.552C59.1126 14.8693 60.5633 14.528 62.1633 14.528C63.6139 14.528 64.8939 14.8267 66.0033 15.424C67.1126 16 67.9766 16.9067 68.5953 18.144C69.2139 19.36 69.5233 20.928 69.5233 22.848C69.5233 24.7467 69.2139 26.3147 68.5953 27.552C67.9766 28.768 67.1126 29.6747 66.0033 30.272C64.8939 30.8693 63.6139 31.168 62.1633 31.168ZM63.1553 27.072C64.0299 27.072 64.8086 26.9013 65.4913 26.56C66.1739 26.1973 66.7073 25.696 67.0913 25.056C67.4753 24.416 67.6673 23.68 67.6673 22.848C67.6673 21.9947 67.4753 21.2587 67.0913 20.64C66.7073 20 66.1739 19.5093 65.4913 19.168C64.8086 18.8053 64.0299 18.624 63.1553 18.624C62.2806 18.624 61.5019 18.8053 60.8193 19.168C60.1366 19.5093 59.5926 20 59.1873 20.64C58.8033 21.2587 58.6113 21.9947 58.6113 22.848C58.6113 23.68 58.8033 24.416 59.1873 25.056C59.5926 25.696 60.1366 26.1973 60.8193 26.56C61.5019 26.9013 62.2806 27.072 63.1553 27.072ZM85.7855 32.256C83.8228 32.256 82.0948 31.872 80.6015 31.104C79.1295 30.336 77.9882 29.2907 77.1775 27.968C76.3668 26.624 75.9615 25.0987 75.9615 23.392C75.9615 21.664 76.3562 20.1387 77.1455 18.816C77.9562 17.472 79.0548 16.4267 80.4415 15.68C81.8282 14.912 83.3962 14.528 85.1455 14.528C86.8308 14.528 88.3455 14.8907 89.6895 15.616C91.0548 16.32 92.1322 17.344 92.9215 18.688C93.7108 20.0107 94.1055 21.6 94.1055 23.456C94.1055 23.648 94.0948 23.872 94.0735 24.128C94.0522 24.3627 94.0308 24.5867 94.0095 24.8H80.0255V21.888H91.3855L89.4655 22.752C89.4655 21.856 89.2842 21.0773 88.9215 20.416C88.5588 19.7547 88.0575 19.2427 87.4175 18.88C86.7775 18.496 86.0308 18.304 85.1775 18.304C84.3242 18.304 83.5668 18.496 82.9055 18.88C82.2655 19.2427 81.7642 19.7653 81.4015 20.448C81.0388 21.1093 80.8575 21.8987 80.8575 22.816V23.584C80.8575 24.5227 81.0602 25.3547 81.4655 26.08C81.8922 26.784 82.4788 27.328 83.2255 27.712C83.9935 28.0747 84.8895 28.256 85.9135 28.256C86.8308 28.256 87.6308 28.1173 88.3135 27.84C89.0175 27.5627 89.6575 27.1467 90.2335 26.592L92.8895 29.472C92.1002 30.368 91.1082 31.0613 89.9135 31.552C88.7188 32.0213 87.3428 32.256 85.7855 32.256ZM107.893 14.528C109.258 14.528 110.474 14.8053 111.541 15.36C112.629 15.8933 113.482 16.7253 114.101 17.856C114.72 18.9653 115.029 20.3947 115.029 22.144V32H110.037V22.912C110.037 21.5253 109.728 20.5013 109.109 19.84C108.512 19.1787 107.658 18.848 106.549 18.848C105.76 18.848 105.045 19.0187 104.405 19.36C103.786 19.68 103.296 20.1813 102.933 20.864C102.592 21.5467 102.421 22.4213 102.421 23.488V32H97.429V14.784H102.197V19.552L101.301 18.112C101.92 16.96 102.805 16.0747 103.957 15.456C105.109 14.8373 106.421 14.528 107.893 14.528Z" fill="#F3F3F3"/>
<mask id="mask0_316_16" style="mask-type:alpha" maskUnits="userSpaceOnUse" x="47" y="0" width="39" height="11">
<rect x="47" width="39" height="11" fill="#D9D9D9"/>
</mask>
<g mask="url(#mask0_316_16)">
<path d="M78 26.7587C78 30.3802 76.525 33.8535 73.8995 36.4143C71.274 38.9752 67.713 40.4139 64 40.4139C62.1945 40.4139 62.5 44.838 60 43.8584C58.2636 43.1781 55.4493 37.7299 54.1005 36.4143C51.475 33.8535 50 30.3802 50 26.7587C50 16.9406 57 4 64 4C71 4 78 16.9406 78 26.7587Z" fill="#F2994A"/>
</g>
</svg>
